<svg xmlns="http://www.w3.org/2000/svg" width="622" height="623"><rect x="0" y="0" width="622" height="623" fill="rgb(255,255,255)"></rect><rect x="0" y="0" width="560" height="560" fill="rgba(255,255,255,1)"></rect><rect x="231" y="253" width="20" height="20" fill="rgba(230,100,100,1)"><title>alu_a_i</title></rect><text x="241" y="263" text-anchor="middle" alignment-baseline="middle" fill="black">C</text><rect x="231" y="319" width="20" height="20" fill="rgba(230,100,100,1)"><title>alu_b_i</title></rect><text x="241" y="329" text-anchor="middle" alignment-baseline="middle" fill="black">C</text><rect x="319" y="253" width="20" height="20" fill="rgba(230,100,100,1)"><title>alu_op_i</title></rect><text x="329" y="263" text-anchor="middle" alignment-baseline="middle" fill="black">C</text><rect x="33" y="231" width="20" height="20" fill="rgba(100,100,230,1)"><title>alu_p_o</title></rect><text x="43" y="241" text-anchor="middle" alignment-baseline="middle" fill="black">L</text><rect x="232" y="297" width="40" height="20" fill="rgba(230,230,230,1)"><title>$procmux$181:A
$procmux$181:B
$procmux$181:S</title></rect><text x="252" y="307" text-anchor="middle" alignment-baseline="middle" fill="black">=</text><rect x="232" y="275" width="40" height="20" fill="rgba(230,230,230,1)"></rect><text x="252" y="285" text-anchor="middle" alignment-baseline="middle" fill="black">=</text><rect x="232" y="451" width="40" height="20" fill="rgba(230,230,230,1)"><title>$procmux$181:Y</title></rect><text x="252" y="461" text-anchor="middle" alignment-baseline="middle" fill="black">+</text><rect x="430" y="253" width="40" height="20" fill="rgba(230,230,230,1)"><title>$procmux$72:A
$procmux$72:B
$procmux$72:S</title></rect><text x="450" y="263" text-anchor="middle" alignment-baseline="middle" fill="black">=</text><rect x="430" y="275" width="40" height="20" fill="rgba(230,230,230,1)"></rect><text x="450" y="285" text-anchor="middle" alignment-baseline="middle" fill="black">=</text><rect x="232" y="33" width="40" height="20" fill="rgba(230,230,230,1)"><title>$procmux$72:Y</title></rect><text x="252" y="43" text-anchor="middle" alignment-baseline="middle" fill="black">+</text><rect x="232" y="363" width="40" height="20" fill="rgba(230,230,230,1)"><title>$lt$../../core/riscv/riscv_alu.v:189$20:A
$lt$../../core/riscv/riscv_alu.v:189$20:B
$lt$../../core/riscv/riscv_alu.v:189$20:Y</title></rect><text x="252" y="373" text-anchor="middle" alignment-baseline="middle" fill="black">&lt;</text><rect x="474" y="341" width="40" height="20" fill="rgba(230,230,230,1)"><title>$procmux$85:A
$procmux$85:B
$procmux$85:S</title></rect><text x="494" y="351" text-anchor="middle" alignment-baseline="middle" fill="black">=</text><rect x="474" y="231" width="40" height="20" fill="rgba(230,230,230,1)"></rect><text x="494" y="241" text-anchor="middle" alignment-baseline="middle" fill="black">=</text><rect x="430" y="341" width="40" height="20" fill="rgba(230,230,230,1)"><title>$procmux$85:Y</title></rect><text x="450" y="351" text-anchor="middle" alignment-baseline="middle" fill="black">+</text><rect x="276" y="363" width="40" height="20" fill="rgba(230,230,230,1)"><title>$procmux$98:A
$procmux$98:B
$procmux$98:S</title></rect><text x="296" y="373" text-anchor="middle" alignment-baseline="middle" fill="black">=</text><rect x="276" y="341" width="40" height="20" fill="rgba(230,230,230,1)"></rect><text x="296" y="351" text-anchor="middle" alignment-baseline="middle" fill="black">=</text><rect x="474" y="275" width="40" height="20" fill="rgba(230,230,230,1)"><title>$procmux$98:Y</title></rect><text x="494" y="285" text-anchor="middle" alignment-baseline="middle" fill="black">+</text><rect x="34" y="253" width="40" height="20" fill="rgba(230,230,230,1)"><title>$ternary$../../core/riscv/riscv_alu.v:196$24:A
$ternary$../../core/riscv/riscv_alu.v:196$24:B
$ternary$../../core/riscv/riscv_alu.v:196$24:S</title></rect><text x="54" y="263" text-anchor="middle" alignment-baseline="middle" fill="black">=</text><rect x="34" y="275" width="40" height="20" fill="rgba(230,230,230,1)"></rect><text x="54" y="285" text-anchor="middle" alignment-baseline="middle" fill="black">=</text><rect x="34" y="297" width="40" height="20" fill="rgba(230,230,230,1)"><title>$ternary$../../core/riscv/riscv_alu.v:196$24:Y</title></rect><text x="54" y="307" text-anchor="middle" alignment-baseline="middle" fill="black">+</text><rect x="320" y="297" width="40" height="20" fill="rgba(230,230,230,1)"><title>$ternary$../../core/riscv/riscv_alu.v:189$21:A
$ternary$../../core/riscv/riscv_alu.v:189$21:B
$ternary$../../core/riscv/riscv_alu.v:189$21:S</title></rect><text x="340" y="307" text-anchor="middle" alignment-baseline="middle" fill="black">=</text><rect x="320" y="275" width="40" height="20" fill="rgba(230,230,230,1)"></rect><text x="340" y="285" text-anchor="middle" alignment-baseline="middle" fill="black">=</text><rect x="364" y="341" width="40" height="20" fill="rgba(230,230,230,1)"><title>$ternary$../../core/riscv/riscv_alu.v:189$21:Y</title></rect><text x="384" y="351" text-anchor="middle" alignment-baseline="middle" fill="black">+</text><rect x="232" y="341" width="40" height="20" fill="rgba(230,230,230,1)"><title>$xor$../../core/riscv/riscv_alu.v:182$19:A
$xor$../../core/riscv/riscv_alu.v:182$19:B
$xor$../../core/riscv/riscv_alu.v:182$19:Y</title></rect><text x="252" y="351" text-anchor="middle" alignment-baseline="middle" fill="black">XOR</text><rect x="518" y="231" width="40" height="20" fill="rgba(230,230,230,1)"><title>$procmux$111:A
$procmux$111:B
$procmux$111:S</title></rect><text x="538" y="241" text-anchor="middle" alignment-baseline="middle" fill="black">=</text><rect x="518" y="363" width="40" height="20" fill="rgba(230,230,230,1)"></rect><text x="538" y="373" text-anchor="middle" alignment-baseline="middle" fill="black">=</text><rect x="474" y="319" width="40" height="20" fill="rgba(230,230,230,1)"><title>$procmux$111:Y</title></rect><text x="494" y="329" text-anchor="middle" alignment-baseline="middle" fill="black">+</text><rect x="232" y="385" width="40" height="20" fill="rgba(230,230,230,1)"><title>$or$../../core/riscv/riscv_alu.v:178$18:A
$or$../../core/riscv/riscv_alu.v:178$18:B
$or$../../core/riscv/riscv_alu.v:178$18:Y</title></rect><text x="252" y="395" text-anchor="middle" alignment-baseline="middle" fill="black">OR</text><rect x="320" y="517" width="40" height="20" fill="rgba(230,230,230,1)"><title>$procmux$139:A
$procmux$139:B
$procmux$139:S</title></rect><text x="340" y="527" text-anchor="middle" alignment-baseline="middle" fill="black">=</text><rect x="320" y="495" width="40" height="20" fill="rgba(230,230,230,1)"></rect><text x="340" y="505" text-anchor="middle" alignment-baseline="middle" fill="black">=</text><rect x="320" y="539" width="40" height="20" fill="rgba(230,230,230,1)"><title>$procmux$139:Y</title></rect><text x="340" y="549" text-anchor="middle" alignment-baseline="middle" fill="black">+</text><rect x="518" y="385" width="40" height="20" fill="rgba(230,230,230,1)"><title>$abc$150$auto$blifparse.cc:519:parse_blif$151:A0
$abc$150$auto$blifparse.cc:519:parse_blif$151:A1
$abc$150$auto$blifparse.cc:519:parse_blif$151:Y</title></rect><text x="538" y="395" text-anchor="middle" alignment-baseline="middle" fill="black">=</text><rect x="232" y="55" width="40" height="20" fill="rgba(230,230,230,1)"><title>$procmux$59:A
$procmux$59:B
$procmux$59:S</title></rect><text x="252" y="65" text-anchor="middle" alignment-baseline="middle" fill="black">=</text><rect x="232" y="77" width="40" height="20" fill="rgba(230,230,230,1)"></rect><text x="252" y="87" text-anchor="middle" alignment-baseline="middle" fill="black">=</text><rect x="232" y="99" width="40" height="20" fill="rgba(230,230,230,1)"><title>$procmux$59:Y</title></rect><text x="252" y="109" text-anchor="middle" alignment-baseline="middle" fill="black">+</text><rect x="232" y="517" width="40" height="20" fill="rgba(230,230,230,1)"><title>$procmux$167:A
$procmux$167:B
$procmux$167:S</title></rect><text x="252" y="527" text-anchor="middle" alignment-baseline="middle" fill="black">=</text><rect x="232" y="495" width="40" height="20" fill="rgba(230,230,230,1)"></rect><text x="252" y="505" text-anchor="middle" alignment-baseline="middle" fill="black">=</text><rect x="232" y="583" width="40" height="20" fill="rgba(230,230,230,1)"><title>$procmux$167:Y</title></rect><text x="252" y="593" text-anchor="middle" alignment-baseline="middle" fill="black">+</text><rect x="276" y="253" width="40" height="20" fill="rgba(230,230,230,1)"><title>$and$../../core/riscv/riscv_alu.v:174$17:A
$and$../../core/riscv/riscv_alu.v:174$17:B
$and$../../core/riscv/riscv_alu.v:174$17:Y</title></rect><text x="296" y="263" text-anchor="middle" alignment-baseline="middle" fill="black">AND</text><rect x="320" y="583" width="40" height="20" fill="rgba(230,230,230,1)"><title>$procmux$125:A
$procmux$125:B
$procmux$125:S</title></rect><text x="340" y="593" text-anchor="middle" alignment-baseline="middle" fill="black">=</text><rect x="364" y="583" width="40" height="20" fill="rgba(230,230,230,1)"></rect><text x="384" y="593" text-anchor="middle" alignment-baseline="middle" fill="black">=</text><rect x="364" y="319" width="40" height="20" fill="rgba(230,230,230,1)"><title>$procmux$125:Y</title></rect><text x="384" y="329" text-anchor="middle" alignment-baseline="middle" fill="black">+</text><rect x="276" y="517" width="40" height="20" fill="rgba(230,230,230,1)"><title>$procmux$153:A
$procmux$153:B
$procmux$153:S</title></rect><text x="296" y="527" text-anchor="middle" alignment-baseline="middle" fill="black">=</text><rect x="276" y="473" width="40" height="20" fill="rgba(230,230,230,1)"></rect><text x="296" y="483" text-anchor="middle" alignment-baseline="middle" fill="black">=</text><rect x="276" y="429" width="40" height="20" fill="rgba(230,230,230,1)"><title>$procmux$153:Y</title></rect><text x="296" y="439" text-anchor="middle" alignment-baseline="middle" fill="black">+</text><rect x="34" y="319" width="40" height="20" fill="rgba(230,230,230,1)"><title>$ternary$../../core/riscv/riscv_alu.v:194$23:A
$ternary$../../core/riscv/riscv_alu.v:194$23:B
$ternary$../../core/riscv/riscv_alu.v:194$23:S</title></rect><text x="54" y="329" text-anchor="middle" alignment-baseline="middle" fill="black">=</text><rect x="34" y="341" width="40" height="20" fill="rgba(230,230,230,1)"></rect><text x="54" y="351" text-anchor="middle" alignment-baseline="middle" fill="black">=</text><rect x="34" y="363" width="40" height="20" fill="rgba(230,230,230,1)"><title>$ternary$../../core/riscv/riscv_alu.v:194$23:Y</title></rect><text x="54" y="373" text-anchor="middle" alignment-baseline="middle" fill="black">+</text><rect x="276" y="385" width="40" height="20" fill="rgba(230,230,230,1)"><title>$sub$../../core/riscv/riscv_alu.v:73$1:A
$sub$../../core/riscv/riscv_alu.v:73$1:B
$sub$../../core/riscv/riscv_alu.v:73$1:Y</title></rect><text x="296" y="395" text-anchor="middle" alignment-baseline="middle" fill="black">-</text><rect x="34" y="385" width="40" height="20" fill="rgba(230,230,230,1)"><title>$ne$../../core/riscv/riscv_alu.v:193$22:A
$ne$../../core/riscv/riscv_alu.v:193$22:B
$ne$../../core/riscv/riscv_alu.v:193$22:Y</title></rect><text x="54" y="395" text-anchor="middle" alignment-baseline="middle" fill="black">≠</text><rect x="78" y="385" width="40" height="20" fill="rgba(230,230,230,1)"><title>$procmux$33:A
$procmux$33:B
$procmux$33:S</title></rect><text x="98" y="395" text-anchor="middle" alignment-baseline="middle" fill="black">=</text><rect x="78" y="363" width="40" height="20" fill="rgba(230,230,230,1)"></rect><text x="98" y="373" text-anchor="middle" alignment-baseline="middle" fill="black">=</text><rect x="78" y="341" width="40" height="20" fill="rgba(230,230,230,1)"><title>$procmux$33:Y</title></rect><text x="98" y="351" text-anchor="middle" alignment-baseline="middle" fill="black">+</text><rect x="232" y="121" width="40" height="20" fill="rgba(230,230,230,1)"><title>$procmux$194_ANY:A0
$procmux$194_ANY:A1
$procmux$194_ANY:Y</title></rect><text x="252" y="131" text-anchor="middle" alignment-baseline="middle" fill="black">≠</text><rect x="232" y="143" width="40" height="20" fill="rgba(230,230,230,1)"><title>$procmux$46:A
$procmux$46:B
$procmux$46:S</title></rect><text x="252" y="153" text-anchor="middle" alignment-baseline="middle" fill="black">=</text><rect x="232" y="165" width="40" height="20" fill="rgba(230,230,230,1)"></rect><text x="252" y="175" text-anchor="middle" alignment-baseline="middle" fill="black">=</text><rect x="232" y="187" width="40" height="20" fill="rgba(230,230,230,1)"><title>$procmux$46:Y</title></rect><text x="252" y="197" text-anchor="middle" alignment-baseline="middle" fill="black">+</text><rect x="276" y="187" width="40" height="20" fill="rgba(230,230,230,1)"><title>$eq$../../core/riscv/riscv_alu.v:128$9:A
$eq$../../core/riscv/riscv_alu.v:128$9:B
$eq$../../core/riscv/riscv_alu.v:128$9:Y</title></rect><text x="296" y="197" text-anchor="middle" alignment-baseline="middle" fill="black">=</text><rect x="78" y="319" width="40" height="20" fill="rgba(230,230,230,1)"><title>9-pmux|i=0,s=(Id(2), Equal, Constant(11)),b=Id(1)
$procmux$186:B0
$procmux$186:S0</title></rect><text x="98" y="329" text-anchor="middle" alignment-baseline="middle" fill="black">=</text><rect x="78" y="297" width="40" height="20" fill="rgba(230,230,230,1)"><title>9-pmux|i=1,s=(Id(2), Equal, Constant(10)),b=Id(3)
$procmux$186:B1
$procmux$186:S1</title></rect><text x="98" y="307" text-anchor="middle" alignment-baseline="middle" fill="black">=</text><rect x="320" y="231" width="40" height="20" fill="rgba(230,230,230,1)"><title>9-pmux|i=2,s=(Id(2), Equal, Constant(9)),b=Id(4)
$procmux$186:B2
$procmux$186:S2</title></rect><text x="340" y="241" text-anchor="middle" alignment-baseline="middle" fill="black">=</text><rect x="320" y="363" width="40" height="20" fill="rgba(230,230,230,1)"><title>9-pmux|i=3,s=(Id(2), Equal, Constant(8)),b=Id(5)
$procmux$186:B3
$procmux$186:S3</title></rect><text x="340" y="373" text-anchor="middle" alignment-baseline="middle" fill="black">=</text><rect x="364" y="363" width="40" height="20" fill="rgba(230,230,230,1)"><title>9-pmux|i=4,s=(Id(2), Equal, Constant(7)),b=Id(6)
$procmux$186:B4
$procmux$186:S4</title></rect><text x="384" y="373" text-anchor="middle" alignment-baseline="middle" fill="black">=</text><rect x="320" y="385" width="40" height="20" fill="rgba(230,230,230,1)"><title>9-pmux|i=5,s=(Id(2), Equal, Constant(6)),b=Id(7)
$procmux$186:B5
$procmux$186:S5</title></rect><text x="340" y="395" text-anchor="middle" alignment-baseline="middle" fill="black">=</text><rect x="364" y="385" width="40" height="20" fill="rgba(230,230,230,1)"><title>9-pmux|i=6,s=(Id(2), Equal, Constant(4)),b=Id(8)
$procmux$186:B6
$procmux$186:S6</title></rect><text x="384" y="395" text-anchor="middle" alignment-baseline="middle" fill="black">=</text><rect x="276" y="165" width="40" height="20" fill="rgba(230,230,230,1)"><title>9-pmux|i=7,s=(Id(11), NotEqual, Constant(0)),b=Id(9)
$procmux$186:B7
$procmux$186:S7</title></rect><text x="296" y="175" text-anchor="middle" alignment-baseline="middle" fill="black">≠</text><rect x="364" y="297" width="40" height="20" fill="rgba(230,230,230,1)"><title>9-pmux|i=8,s=(Id(2), Equal, Constant(1)),b=Id(10)
$procmux$186:B8
$procmux$186:S8</title></rect><text x="384" y="307" text-anchor="middle" alignment-baseline="middle" fill="black">=</text><rect x="78" y="275" width="40" height="20" fill="rgba(230,230,230,1)"><title>9-pmux output y
$procmux$186:Y</title></rect><text x="98" y="285" text-anchor="middle" alignment-baseline="middle" fill="black">+</text><rect x="276" y="143" width="40" height="20" fill="rgba(230,230,230,1)"><title>$procmux$101_CMP0:A
$procmux$101_CMP0:B
$procmux$101_CMP0:Y</title></rect><text x="296" y="153" text-anchor="middle" alignment-baseline="middle" fill="black">=</text><rect x="276" y="275" width="40" height="20" fill="rgba(230,230,230,1)"><title>$add$../../core/riscv/riscv_alu.v:163$16:A
$add$../../core/riscv/riscv_alu.v:163$16:B
$add$../../core/riscv/riscv_alu.v:163$16:Y</title></rect><text x="296" y="285" text-anchor="middle" alignment-baseline="middle" fill="black">+</text><rect x="276" y="297" width="40" height="20" fill="rgba(230,230,230,1)"><title>$swizzle:Y</title></rect><text x="296" y="307" text-anchor="middle" alignment-baseline="middle" fill="black">AND</text><rect x="276" y="319" width="40" height="20" fill="rgba(230,230,230,1)"><title>$swizzle:A0</title></rect><text x="296" y="329" text-anchor="middle" alignment-baseline="middle" fill="black">&lt;&lt;</text><rect x="474" y="385" width="40" height="20" fill="rgba(230,230,230,1)"></rect><text x="494" y="395" text-anchor="middle" alignment-baseline="middle" fill="black">AND</text><rect x="474" y="363" width="40" height="20" fill="rgba(230,230,230,1)"><title>$swizzle:A0</title></rect><text x="494" y="373" text-anchor="middle" alignment-baseline="middle" fill="black">&gt;&gt;</text><rect x="430" y="319" width="40" height="20" fill="rgba(230,230,230,1)"><title>$swizzle:Y</title></rect><text x="450" y="329" text-anchor="middle" alignment-baseline="middle" fill="black">AND</text><rect x="430" y="385" width="40" height="20" fill="rgba(230,230,230,1)"><title>$swizzle:A1</title></rect><text x="450" y="395" text-anchor="middle" alignment-baseline="middle" fill="black">&lt;&lt;</text><rect x="430" y="297" width="40" height="20" fill="rgba(230,230,230,1)"><title>$swizzle:Y</title></rect><text x="450" y="307" text-anchor="middle" alignment-baseline="middle" fill="black">AND</text><rect x="430" y="363" width="40" height="20" fill="rgba(230,230,230,1)"><title>$swizzle:A</title></rect><text x="450" y="373" text-anchor="middle" alignment-baseline="middle" fill="black">&gt;&gt;</text><rect x="518" y="341" width="40" height="20" fill="rgba(230,230,230,1)"></rect><text x="538" y="351" text-anchor="middle" alignment-baseline="middle" fill="black">AND</text><rect x="518" y="319" width="40" height="20" fill="rgba(230,230,230,1)"><title>$swizzle:A0</title></rect><text x="538" y="329" text-anchor="middle" alignment-baseline="middle" fill="black">&gt;&gt;</text><rect x="474" y="253" width="40" height="20" fill="rgba(230,230,230,1)"><title>$swizzle:Y</title></rect><text x="494" y="263" text-anchor="middle" alignment-baseline="middle" fill="black">AND</text><rect x="518" y="253" width="40" height="20" fill="rgba(230,230,230,1)"><title>$swizzle:A1</title></rect><text x="538" y="263" text-anchor="middle" alignment-baseline="middle" fill="black">&lt;&lt;</text><rect x="474" y="297" width="40" height="20" fill="rgba(230,230,230,1)"><title>$swizzle:Y</title></rect><text x="494" y="307" text-anchor="middle" alignment-baseline="middle" fill="black">AND</text><rect x="518" y="297" width="40" height="20" fill="rgba(230,230,230,1)"><title>$swizzle:A</title></rect><text x="538" y="307" text-anchor="middle" alignment-baseline="middle" fill="black">&gt;&gt;</text><rect x="276" y="121" width="40" height="20" fill="rgba(230,230,230,1)"></rect><text x="296" y="131" text-anchor="middle" alignment-baseline="middle" fill="black">AND</text><rect x="276" y="99" width="40" height="20" fill="rgba(230,230,230,1)"><title>$swizzle:A0</title></rect><text x="296" y="109" text-anchor="middle" alignment-baseline="middle" fill="black">&gt;&gt;</text><rect x="276" y="77" width="40" height="20" fill="rgba(230,230,230,1)"><title>$swizzle:Y</title></rect><text x="296" y="87" text-anchor="middle" alignment-baseline="middle" fill="black">AND</text><rect x="276" y="55" width="40" height="20" fill="rgba(230,230,230,1)"><title>$swizzle:A1</title></rect><text x="296" y="65" text-anchor="middle" alignment-baseline="middle" fill="black">&lt;&lt;</text><rect x="77" y="253" width="20" height="20" fill="rgba(230,230,230,1)"><title>$constant:Y</title></rect><text x="87" y="263" text-anchor="middle" alignment-baseline="middle" fill="black">C</text><rect x="77" y="231" width="20" height="20" fill="rgba(230,230,230,1)"><title>$constant:Y</title></rect><text x="87" y="241" text-anchor="middle" alignment-baseline="middle" fill="black">C</text><rect x="122" y="231" width="40" height="20" fill="rgba(230,230,230,1)"><title>$swizzle:Y</title></rect><text x="142" y="241" text-anchor="middle" alignment-baseline="middle" fill="black">AND</text><rect x="122" y="253" width="40" height="20" fill="rgba(230,230,230,1)"><title>$swizzle:A</title></rect><text x="142" y="263" text-anchor="middle" alignment-baseline="middle" fill="black">&gt;&gt;</text><rect x="319" y="319" width="20" height="20" fill="rgba(230,230,230,1)"><title>$constant:Y</title></rect><text x="329" y="329" text-anchor="middle" alignment-baseline="middle" fill="black">C</text><rect x="319" y="341" width="20" height="20" fill="rgba(230,230,230,1)"><title>$constant:Y</title></rect><text x="329" y="351" text-anchor="middle" alignment-baseline="middle" fill="black">C</text><rect x="561" y="363" width="20" height="20" fill="rgba(230,230,230,1)"><title>$constant:Y</title></rect><text x="571" y="373" text-anchor="middle" alignment-baseline="middle" fill="black">C</text><rect x="561" y="385" width="20" height="20" fill="rgba(230,230,230,1)"><title>$constant:Y</title></rect><text x="571" y="395" text-anchor="middle" alignment-baseline="middle" fill="black">C</text><rect x="320" y="451" width="40" height="20" fill="rgba(230,230,230,1)"><title>$swizzle:Y</title></rect><text x="340" y="461" text-anchor="middle" alignment-baseline="middle" fill="black">AND</text><rect x="320" y="429" width="40" height="20" fill="rgba(230,230,230,1)"><title>$swizzle:A0</title></rect><text x="340" y="439" text-anchor="middle" alignment-baseline="middle" fill="black">&lt;&lt;</text><rect x="320" y="473" width="40" height="20" fill="rgba(230,230,230,1)"><title>$swizzle:Y</title></rect><text x="340" y="483" text-anchor="middle" alignment-baseline="middle" fill="black">AND</text><rect x="276" y="231" width="40" height="20" fill="rgba(230,230,230,1)"><title>$swizzle:A</title></rect><text x="296" y="241" text-anchor="middle" alignment-baseline="middle" fill="black">&gt;&gt;</text><rect x="562" y="341" width="40" height="20" fill="rgba(230,230,230,1)"><title>$swizzle:Y</title></rect><text x="582" y="351" text-anchor="middle" alignment-baseline="middle" fill="black">AND</text><rect x="562" y="319" width="40" height="20" fill="rgba(230,230,230,1)"><title>$swizzle:A</title></rect><text x="582" y="329" text-anchor="middle" alignment-baseline="middle" fill="black">&gt;&gt;</text><rect x="276" y="33" width="40" height="20" fill="rgba(230,230,230,1)"></rect><text x="296" y="43" text-anchor="middle" alignment-baseline="middle" fill="black">AND</text><rect x="320" y="33" width="40" height="20" fill="rgba(230,230,230,1)"><title>$swizzle:A0</title></rect><text x="340" y="43" text-anchor="middle" alignment-baseline="middle" fill="black">&gt;&gt;</text><rect x="320" y="55" width="40" height="20" fill="rgba(230,230,230,1)"><title>$swizzle:Y</title></rect><text x="340" y="65" text-anchor="middle" alignment-baseline="middle" fill="black">AND</text><rect x="320" y="77" width="40" height="20" fill="rgba(230,230,230,1)"><title>$swizzle:A1</title></rect><text x="340" y="87" text-anchor="middle" alignment-baseline="middle" fill="black">&lt;&lt;</text><rect x="320" y="99" width="40" height="20" fill="rgba(230,230,230,1)"><title>$swizzle:Y</title></rect><text x="340" y="109" text-anchor="middle" alignment-baseline="middle" fill="black">AND</text><rect x="320" y="121" width="40" height="20" fill="rgba(230,230,230,1)"><title>$swizzle:A</title></rect><text x="340" y="131" text-anchor="middle" alignment-baseline="middle" fill="black">&gt;&gt;</text><rect x="232" y="473" width="40" height="20" fill="rgba(230,230,230,1)"><title>$swizzle:Y</title></rect><text x="252" y="483" text-anchor="middle" alignment-baseline="middle" fill="black">AND</text><rect x="232" y="561" width="40" height="20" fill="rgba(230,230,230,1)"><title>$swizzle:A0</title></rect><text x="252" y="571" text-anchor="middle" alignment-baseline="middle" fill="black">&lt;&lt;</text><rect x="232" y="539" width="40" height="20" fill="rgba(230,230,230,1)"><title>$swizzle:Y</title></rect><text x="252" y="549" text-anchor="middle" alignment-baseline="middle" fill="black">AND</text><rect x="276" y="583" width="40" height="20" fill="rgba(230,230,230,1)"><title>$swizzle:A</title></rect><text x="296" y="593" text-anchor="middle" alignment-baseline="middle" fill="black">&gt;&gt;</text><rect x="320" y="561" width="40" height="20" fill="rgba(230,230,230,1)"><title>$swizzle:Y</title></rect><text x="340" y="571" text-anchor="middle" alignment-baseline="middle" fill="black">AND</text><rect x="364" y="561" width="40" height="20" fill="rgba(230,230,230,1)"><title>$swizzle:A0</title></rect><text x="384" y="571" text-anchor="middle" alignment-baseline="middle" fill="black">&lt;&lt;</text><rect x="364" y="539" width="40" height="20" fill="rgba(230,230,230,1)"><title>$swizzle:Y</title></rect><text x="384" y="549" text-anchor="middle" alignment-baseline="middle" fill="black">AND</text><rect x="364" y="517" width="40" height="20" fill="rgba(230,230,230,1)"><title>$swizzle:A</title></rect><text x="384" y="527" text-anchor="middle" alignment-baseline="middle" fill="black">&gt;&gt;</text><rect x="276" y="561" width="40" height="20" fill="rgba(230,230,230,1)"><title>$swizzle:Y</title></rect><text x="296" y="571" text-anchor="middle" alignment-baseline="middle" fill="black">AND</text><rect x="276" y="495" width="40" height="20" fill="rgba(230,230,230,1)"><title>$swizzle:A0</title></rect><text x="296" y="505" text-anchor="middle" alignment-baseline="middle" fill="black">&lt;&lt;</text><rect x="276" y="539" width="40" height="20" fill="rgba(230,230,230,1)"><title>$swizzle:Y</title></rect><text x="296" y="549" text-anchor="middle" alignment-baseline="middle" fill="black">AND</text><rect x="276" y="451" width="40" height="20" fill="rgba(230,230,230,1)"><title>$swizzle:A</title></rect><text x="296" y="461" text-anchor="middle" alignment-baseline="middle" fill="black">&gt;&gt;</text><rect x="121" y="275" width="20" height="20" fill="rgba(230,230,230,1)"><title>$constant:Y</title></rect><text x="131" y="285" text-anchor="middle" alignment-baseline="middle" fill="black">C</text><rect x="121" y="297" width="20" height="20" fill="rgba(230,230,230,1)"><title>$constant:Y</title></rect><text x="131" y="307" text-anchor="middle" alignment-baseline="middle" fill="black">C</text><rect x="122" y="319" width="40" height="20" fill="rgba(230,230,230,1)"><title>$swizzle:Y</title></rect><text x="142" y="329" text-anchor="middle" alignment-baseline="middle" fill="black">AND</text><rect x="122" y="341" width="40" height="20" fill="rgba(230,230,230,1)"><title>$swizzle:A</title></rect><text x="142" y="351" text-anchor="middle" alignment-baseline="middle" fill="black">&gt;&gt;</text><rect x="122" y="363" width="40" height="20" fill="rgba(230,230,230,1)"><title>$swizzle:Y</title></rect><text x="142" y="373" text-anchor="middle" alignment-baseline="middle" fill="black">AND</text><rect x="122" y="385" width="40" height="20" fill="rgba(230,230,230,1)"><title>$swizzle:A</title></rect><text x="142" y="395" text-anchor="middle" alignment-baseline="middle" fill="black">&gt;&gt;</text><rect x="166" y="385" width="40" height="20" fill="rgba(230,230,230,1)"><title>$swizzle:Y</title></rect><text x="186" y="395" text-anchor="middle" alignment-baseline="middle" fill="black">AND</text><rect x="166" y="363" width="40" height="20" fill="rgba(230,230,230,1)"><title>$swizzle:A</title></rect><text x="186" y="373" text-anchor="middle" alignment-baseline="middle" fill="black">&gt;&gt;</text><rect x="320" y="143" width="40" height="20" fill="rgba(230,230,230,1)"></rect><text x="340" y="153" text-anchor="middle" alignment-baseline="middle" fill="black">AND</text><rect x="320" y="165" width="40" height="20" fill="rgba(230,230,230,1)"><title>$swizzle:A0</title></rect><text x="340" y="175" text-anchor="middle" alignment-baseline="middle" fill="black">&gt;&gt;</text><rect x="320" y="187" width="40" height="20" fill="rgba(230,230,230,1)"><title>$swizzle:Y</title></rect><text x="340" y="197" text-anchor="middle" alignment-baseline="middle" fill="black">AND</text><rect x="518" y="275" width="40" height="20" fill="rgba(230,230,230,1)"><title>$swizzle:A1</title></rect><text x="538" y="285" text-anchor="middle" alignment-baseline="middle" fill="black">&lt;&lt;</text><rect x="364" y="187" width="40" height="20" fill="rgba(230,230,230,1)"><title>$swizzle:Y</title></rect><text x="384" y="197" text-anchor="middle" alignment-baseline="middle" fill="black">AND</text><rect x="364" y="165" width="40" height="20" fill="rgba(230,230,230,1)"><title>$swizzle:A</title></rect><text x="384" y="175" text-anchor="middle" alignment-baseline="middle" fill="black">&gt;&gt;</text></svg>