<svg xmlns="http://www.w3.org/2000/svg" width="640" height="513"><rect x="0" y="0" width="640" height="513" fill="rgb(255,255,255)"></rect><rect x="0" y="0" width="620" height="460" fill="rgba(255,255,255,1)"></rect><rect x="77" y="121" width="20" height="20" fill="rgba(230,100,100,1)"><title>alu_a_i</title></rect><text x="87" y="131" text-anchor="middle" alignment-baseline="middle" fill="black">C</text><rect x="77" y="99" width="20" height="20" fill="rgba(230,100,100,1)"><title>alu_b_i</title></rect><text x="87" y="109" text-anchor="middle" alignment-baseline="middle" fill="black">C</text><rect x="121" y="187" width="20" height="20" fill="rgba(230,100,100,1)"><title>alu_op_i</title></rect><text x="131" y="197" text-anchor="middle" alignment-baseline="middle" fill="black">C</text><rect x="363" y="33" width="20" height="20" fill="rgba(100,100,230,1)"><title>alu_p_o</title></rect><text x="373" y="43" text-anchor="middle" alignment-baseline="middle" fill="black">L</text><rect x="34" y="77" width="40" height="20" fill="rgba(230,230,230,1)"><title>$procmux$181:A
$procmux$181:B
$procmux$181:S</title></rect><text x="54" y="87" text-anchor="middle" alignment-baseline="middle" fill="black">=</text><rect x="34" y="55" width="40" height="20" fill="rgba(230,230,230,1)"></rect><text x="54" y="65" text-anchor="middle" alignment-baseline="middle" fill="black">=</text><rect x="408" y="77" width="40" height="20" fill="rgba(230,230,230,1)"><title>$procmux$181:Y</title></rect><text x="428" y="87" text-anchor="middle" alignment-baseline="middle" fill="black">+</text><rect x="122" y="297" width="40" height="20" fill="rgba(230,230,230,1)"><title>$procmux$72:A
$procmux$72:B
$procmux$72:S</title></rect><text x="142" y="307" text-anchor="middle" alignment-baseline="middle" fill="black">=</text><rect x="78" y="275" width="40" height="20" fill="rgba(230,230,230,1)"></rect><text x="98" y="285" text-anchor="middle" alignment-baseline="middle" fill="black">=</text><rect x="78" y="429" width="40" height="20" fill="rgba(230,230,230,1)"><title>$procmux$72:Y</title></rect><text x="98" y="439" text-anchor="middle" alignment-baseline="middle" fill="black">+</text><rect x="122" y="77" width="40" height="20" fill="rgba(230,230,230,1)"><title>$lt$../../core/riscv/riscv_alu.v:189$20:A
$lt$../../core/riscv/riscv_alu.v:189$20:B
$lt$../../core/riscv/riscv_alu.v:189$20:Y</title></rect><text x="142" y="87" text-anchor="middle" alignment-baseline="middle" fill="black">&lt;</text><rect x="254" y="99" width="40" height="20" fill="rgba(230,230,230,1)"><title>$procmux$85:A
$procmux$85:B
$procmux$85:S</title></rect><text x="274" y="109" text-anchor="middle" alignment-baseline="middle" fill="black">=</text><rect x="210" y="77" width="40" height="20" fill="rgba(230,230,230,1)"></rect><text x="230" y="87" text-anchor="middle" alignment-baseline="middle" fill="black">=</text><rect x="34" y="297" width="40" height="20" fill="rgba(230,230,230,1)"><title>$procmux$85:Y</title></rect><text x="54" y="307" text-anchor="middle" alignment-baseline="middle" fill="black">+</text><rect x="122" y="55" width="40" height="20" fill="rgba(230,230,230,1)"><title>$procmux$98:A
$procmux$98:B
$procmux$98:S</title></rect><text x="142" y="65" text-anchor="middle" alignment-baseline="middle" fill="black">=</text><rect x="78" y="55" width="40" height="20" fill="rgba(230,230,230,1)"></rect><text x="98" y="65" text-anchor="middle" alignment-baseline="middle" fill="black">=</text><rect x="210" y="55" width="40" height="20" fill="rgba(230,230,230,1)"><title>$procmux$98:Y</title></rect><text x="230" y="65" text-anchor="middle" alignment-baseline="middle" fill="black">+</text><rect x="364" y="77" width="40" height="20" fill="rgba(230,230,230,1)"><title>$ternary$../../core/riscv/riscv_alu.v:196$24:A
$ternary$../../core/riscv/riscv_alu.v:196$24:B
$ternary$../../core/riscv/riscv_alu.v:196$24:S</title></rect><text x="384" y="87" text-anchor="middle" alignment-baseline="middle" fill="black">=</text><rect x="364" y="99" width="40" height="20" fill="rgba(230,230,230,1)"></rect><text x="384" y="109" text-anchor="middle" alignment-baseline="middle" fill="black">=</text><rect x="364" y="121" width="40" height="20" fill="rgba(230,230,230,1)"><title>$ternary$../../core/riscv/riscv_alu.v:196$24:Y</title></rect><text x="384" y="131" text-anchor="middle" alignment-baseline="middle" fill="black">+</text><rect x="166" y="99" width="40" height="20" fill="rgba(230,230,230,1)"><title>$ternary$../../core/riscv/riscv_alu.v:189$21:A
$ternary$../../core/riscv/riscv_alu.v:189$21:B
$ternary$../../core/riscv/riscv_alu.v:189$21:S</title></rect><text x="186" y="109" text-anchor="middle" alignment-baseline="middle" fill="black">=</text><rect x="166" y="55" width="40" height="20" fill="rgba(230,230,230,1)"></rect><text x="186" y="65" text-anchor="middle" alignment-baseline="middle" fill="black">=</text><rect x="166" y="143" width="40" height="20" fill="rgba(230,230,230,1)"><title>$ternary$../../core/riscv/riscv_alu.v:189$21:Y</title></rect><text x="186" y="153" text-anchor="middle" alignment-baseline="middle" fill="black">+</text><rect x="78" y="187" width="40" height="20" fill="rgba(230,230,230,1)"><title>$xor$../../core/riscv/riscv_alu.v:182$19:A
$xor$../../core/riscv/riscv_alu.v:182$19:B
$xor$../../core/riscv/riscv_alu.v:182$19:Y</title></rect><text x="98" y="197" text-anchor="middle" alignment-baseline="middle" fill="black">XOR</text><rect x="34" y="341" width="40" height="20" fill="rgba(230,230,230,1)"><title>$procmux$111:A
$procmux$111:B
$procmux$111:S</title></rect><text x="54" y="351" text-anchor="middle" alignment-baseline="middle" fill="black">=</text><rect x="34" y="385" width="40" height="20" fill="rgba(230,230,230,1)"></rect><text x="54" y="395" text-anchor="middle" alignment-baseline="middle" fill="black">=</text><rect x="78" y="363" width="40" height="20" fill="rgba(230,230,230,1)"><title>$procmux$111:Y</title></rect><text x="98" y="373" text-anchor="middle" alignment-baseline="middle" fill="black">+</text><rect x="78" y="165" width="40" height="20" fill="rgba(230,230,230,1)"><title>$or$../../core/riscv/riscv_alu.v:178$18:A
$or$../../core/riscv/riscv_alu.v:178$18:B
$or$../../core/riscv/riscv_alu.v:178$18:Y</title></rect><text x="98" y="175" text-anchor="middle" alignment-baseline="middle" fill="black">OR</text><rect x="364" y="143" width="40" height="20" fill="rgba(230,230,230,1)"><title>$procmux$139:A
$procmux$139:B
$procmux$139:S</title></rect><text x="384" y="153" text-anchor="middle" alignment-baseline="middle" fill="black">=</text><rect x="364" y="165" width="40" height="20" fill="rgba(230,230,230,1)"></rect><text x="384" y="175" text-anchor="middle" alignment-baseline="middle" fill="black">=</text><rect x="166" y="429" width="40" height="20" fill="rgba(230,230,230,1)"><title>$procmux$139:Y</title></rect><text x="186" y="439" text-anchor="middle" alignment-baseline="middle" fill="black">+</text><rect x="78" y="473" width="40" height="20" fill="rgba(230,230,230,1)"><title>$procmux$59:A
$procmux$59:B
$procmux$59:S</title></rect><text x="98" y="483" text-anchor="middle" alignment-baseline="middle" fill="black">=</text><rect x="122" y="451" width="40" height="20" fill="rgba(230,230,230,1)"></rect><text x="142" y="461" text-anchor="middle" alignment-baseline="middle" fill="black">=</text><rect x="166" y="407" width="40" height="20" fill="rgba(230,230,230,1)"><title>$procmux$59:Y</title></rect><text x="186" y="417" text-anchor="middle" alignment-baseline="middle" fill="black">+</text><rect x="364" y="187" width="40" height="20" fill="rgba(230,230,230,1)"><title>$procmux$167:A
$procmux$167:B
$procmux$167:S</title></rect><text x="384" y="197" text-anchor="middle" alignment-baseline="middle" fill="black">=</text><rect x="364" y="209" width="40" height="20" fill="rgba(230,230,230,1)"></rect><text x="384" y="219" text-anchor="middle" alignment-baseline="middle" fill="black">=</text><rect x="408" y="231" width="40" height="20" fill="rgba(230,230,230,1)"><title>$procmux$167:Y</title></rect><text x="428" y="241" text-anchor="middle" alignment-baseline="middle" fill="black">+</text><rect x="78" y="143" width="40" height="20" fill="rgba(230,230,230,1)"><title>$and$../../core/riscv/riscv_alu.v:174$17:A
$and$../../core/riscv/riscv_alu.v:174$17:B
$and$../../core/riscv/riscv_alu.v:174$17:Y</title></rect><text x="98" y="153" text-anchor="middle" alignment-baseline="middle" fill="black">AND</text><rect x="122" y="385" width="40" height="20" fill="rgba(230,230,230,1)"><title>$procmux$125:A
$procmux$125:B
$procmux$125:S</title></rect><text x="142" y="395" text-anchor="middle" alignment-baseline="middle" fill="black">=</text><rect x="122" y="363" width="40" height="20" fill="rgba(230,230,230,1)"></rect><text x="142" y="373" text-anchor="middle" alignment-baseline="middle" fill="black">=</text><rect x="166" y="209" width="40" height="20" fill="rgba(230,230,230,1)"><title>$procmux$125:Y</title></rect><text x="186" y="219" text-anchor="middle" alignment-baseline="middle" fill="black">+</text><rect x="364" y="231" width="40" height="20" fill="rgba(230,230,230,1)"><title>$procmux$153:A
$procmux$153:B
$procmux$153:S</title></rect><text x="384" y="241" text-anchor="middle" alignment-baseline="middle" fill="black">=</text><rect x="408" y="209" width="40" height="20" fill="rgba(230,230,230,1)"></rect><text x="428" y="219" text-anchor="middle" alignment-baseline="middle" fill="black">=</text><rect x="452" y="231" width="40" height="20" fill="rgba(230,230,230,1)"><title>$procmux$153:Y</title></rect><text x="472" y="241" text-anchor="middle" alignment-baseline="middle" fill="black">+</text><rect x="408" y="165" width="40" height="20" fill="rgba(230,230,230,1)"><title>$ternary$../../core/riscv/riscv_alu.v:194$23:A
$ternary$../../core/riscv/riscv_alu.v:194$23:B
$ternary$../../core/riscv/riscv_alu.v:194$23:S</title></rect><text x="428" y="175" text-anchor="middle" alignment-baseline="middle" fill="black">=</text><rect x="408" y="143" width="40" height="20" fill="rgba(230,230,230,1)"></rect><text x="428" y="153" text-anchor="middle" alignment-baseline="middle" fill="black">=</text><rect x="408" y="121" width="40" height="20" fill="rgba(230,230,230,1)"><title>$ternary$../../core/riscv/riscv_alu.v:194$23:Y</title></rect><text x="428" y="131" text-anchor="middle" alignment-baseline="middle" fill="black">+</text><rect x="122" y="165" width="40" height="20" fill="rgba(230,230,230,1)"><title>$sub$../../core/riscv/riscv_alu.v:73$1:A
$sub$../../core/riscv/riscv_alu.v:73$1:B
$sub$../../core/riscv/riscv_alu.v:73$1:Y</title></rect><text x="142" y="175" text-anchor="middle" alignment-baseline="middle" fill="black">-</text><rect x="408" y="99" width="40" height="20" fill="rgba(230,230,230,1)"><title>$ne$../../core/riscv/riscv_alu.v:193$22:A
$ne$../../core/riscv/riscv_alu.v:193$22:B
$ne$../../core/riscv/riscv_alu.v:193$22:Y</title></rect><text x="428" y="109" text-anchor="middle" alignment-baseline="middle" fill="black">≠</text><rect x="364" y="55" width="40" height="20" fill="rgba(230,230,230,1)"><title>$procmux$33:A
$procmux$33:B
$procmux$33:S</title></rect><text x="384" y="65" text-anchor="middle" alignment-baseline="middle" fill="black">=</text><rect x="408" y="55" width="40" height="20" fill="rgba(230,230,230,1)"></rect><text x="428" y="65" text-anchor="middle" alignment-baseline="middle" fill="black">=</text><rect x="166" y="121" width="40" height="20" fill="rgba(230,230,230,1)"><title>$procmux$33:Y</title></rect><text x="186" y="131" text-anchor="middle" alignment-baseline="middle" fill="black">+</text><rect x="254" y="209" width="40" height="20" fill="rgba(230,230,230,1)"><title>$procmux$194_ANY:A0
$procmux$194_ANY:A1
$procmux$194_ANY:Y</title></rect><text x="274" y="219" text-anchor="middle" alignment-baseline="middle" fill="black">≠</text><rect x="166" y="385" width="40" height="20" fill="rgba(230,230,230,1)"><title>$procmux$46:A
$procmux$46:B
$procmux$46:S</title></rect><text x="186" y="395" text-anchor="middle" alignment-baseline="middle" fill="black">=</text><rect x="166" y="363" width="40" height="20" fill="rgba(230,230,230,1)"></rect><text x="186" y="373" text-anchor="middle" alignment-baseline="middle" fill="black">=</text><rect x="254" y="231" width="40" height="20" fill="rgba(230,230,230,1)"><title>$procmux$46:Y</title></rect><text x="274" y="241" text-anchor="middle" alignment-baseline="middle" fill="black">+</text><rect x="78" y="385" width="40" height="20" fill="rgba(230,230,230,1)"><title>$auto$flowmap.cc:1414:pack_cells$124:A0
$auto$flowmap.cc:1414:pack_cells$124:A1
$auto$flowmap.cc:1414:pack_cells$124:Y</title></rect><text x="98" y="395" text-anchor="middle" alignment-baseline="middle" fill="black">=</text><rect x="254" y="165" width="40" height="20" fill="rgba(230,230,230,1)"><title>$eq$../../core/riscv/riscv_alu.v:128$9:A
$eq$../../core/riscv/riscv_alu.v:128$9:B
$eq$../../core/riscv/riscv_alu.v:128$9:Y</title></rect><text x="274" y="175" text-anchor="middle" alignment-baseline="middle" fill="black">=</text><rect x="210" y="121" width="40" height="20" fill="rgba(230,230,230,1)"><title>9-pmux|i=0,s=(Id(2), Equal, Constant(11)),b=Id(8)
$procmux$186:B0
$procmux$186:S0</title></rect><text x="230" y="131" text-anchor="middle" alignment-baseline="middle" fill="black">=</text><rect x="166" y="165" width="40" height="20" fill="rgba(230,230,230,1)"><title>9-pmux|i=1,s=(Id(2), Equal, Constant(10)),b=Id(10)
$procmux$186:B1
$procmux$186:S1</title></rect><text x="186" y="175" text-anchor="middle" alignment-baseline="middle" fill="black">=</text><rect x="122" y="231" width="40" height="20" fill="rgba(230,230,230,1)"><title>9-pmux|i=2,s=(Id(2), Equal, Constant(9)),b=Id(12)
$procmux$186:B2
$procmux$186:S2</title></rect><text x="142" y="241" text-anchor="middle" alignment-baseline="middle" fill="black">=</text><rect x="78" y="231" width="40" height="20" fill="rgba(230,230,230,1)"><title>9-pmux|i=3,s=(Id(2), Equal, Constant(8)),b=Id(14)
$procmux$186:B3
$procmux$186:S3</title></rect><text x="98" y="241" text-anchor="middle" alignment-baseline="middle" fill="black">=</text><rect x="78" y="209" width="40" height="20" fill="rgba(230,230,230,1)"><title>9-pmux|i=4,s=(Id(2), Equal, Constant(7)),b=Id(16)
$procmux$186:B4
$procmux$186:S4</title></rect><text x="98" y="219" text-anchor="middle" alignment-baseline="middle" fill="black">=</text><rect x="122" y="209" width="40" height="20" fill="rgba(230,230,230,1)"><title>9-pmux|i=5,s=(Id(2), Equal, Constant(6)),b=Id(18)
$procmux$186:B5
$procmux$186:S5</title></rect><text x="142" y="219" text-anchor="middle" alignment-baseline="middle" fill="black">=</text><rect x="144" y="187" width="40" height="20" fill="rgba(230,230,230,1)"><title>9-pmux|i=6,s=(Id(2), Equal, Constant(4)),b=Id(20)
$procmux$186:B6
$procmux$186:S6</title></rect><text x="164" y="197" text-anchor="middle" alignment-baseline="middle" fill="black">=</text><rect x="298" y="187" width="40" height="20" fill="rgba(230,230,230,1)"><title>9-pmux|i=7,s=(Id(31), NotEqual, Constant(0)),b=Id(21)
$procmux$186:B7
$procmux$186:S7</title></rect><text x="318" y="197" text-anchor="middle" alignment-baseline="middle" fill="black">≠</text><rect x="210" y="143" width="40" height="20" fill="rgba(230,230,230,1)"><title>9-pmux|i=8,s=(Id(2), Equal, Constant(1)),b=Id(23)
$procmux$186:B8
$procmux$186:S8</title></rect><text x="230" y="153" text-anchor="middle" alignment-baseline="middle" fill="black">=</text><rect x="408" y="33" width="40" height="20" fill="rgba(230,230,230,1)"><title>9-pmux output y
$procmux$186:Y</title></rect><text x="428" y="43" text-anchor="middle" alignment-baseline="middle" fill="black">+</text><rect x="210" y="187" width="40" height="20" fill="rgba(230,230,230,1)"><title>$procmux$101_CMP0:A
$procmux$101_CMP0:B
$procmux$101_CMP0:Y</title></rect><text x="230" y="197" text-anchor="middle" alignment-baseline="middle" fill="black">=</text><rect x="122" y="143" width="40" height="20" fill="rgba(230,230,230,1)"><title>$add$../../core/riscv/riscv_alu.v:163$16:A
$add$../../core/riscv/riscv_alu.v:163$16:B
$add$../../core/riscv/riscv_alu.v:163$16:Y</title></rect><text x="142" y="153" text-anchor="middle" alignment-baseline="middle" fill="black">+</text><rect x="34" y="121" width="40" height="20" fill="rgba(230,230,230,1)"><title>$swizzle:A0</title></rect><text x="54" y="131" text-anchor="middle" alignment-baseline="middle" fill="black">AND</text><rect x="34" y="99" width="40" height="20" fill="rgba(230,230,230,1)"><title>$swizzle:Y</title></rect><text x="54" y="109" text-anchor="middle" alignment-baseline="middle" fill="black">&lt;&lt;</text><rect x="34" y="275" width="40" height="20" fill="rgba(230,230,230,1)"><title>$swizzle:A0</title></rect><text x="54" y="285" text-anchor="middle" alignment-baseline="middle" fill="black">AND</text><rect x="34" y="319" width="40" height="20" fill="rgba(230,230,230,1)"></rect><text x="54" y="329" text-anchor="middle" alignment-baseline="middle" fill="black">&gt;&gt;</text><rect x="78" y="319" width="40" height="20" fill="rgba(230,230,230,1)"><title>$swizzle:A1</title></rect><text x="98" y="329" text-anchor="middle" alignment-baseline="middle" fill="black">AND</text><rect x="78" y="297" width="40" height="20" fill="rgba(230,230,230,1)"><title>$swizzle:Y</title></rect><text x="98" y="307" text-anchor="middle" alignment-baseline="middle" fill="black">&lt;&lt;</text><rect x="166" y="275" width="40" height="20" fill="rgba(230,230,230,1)"><title>$swizzle:A</title></rect><text x="186" y="285" text-anchor="middle" alignment-baseline="middle" fill="black">AND</text><rect x="122" y="275" width="40" height="20" fill="rgba(230,230,230,1)"><title>$swizzle:Y</title></rect><text x="142" y="285" text-anchor="middle" alignment-baseline="middle" fill="black">&gt;&gt;</text><rect x="254" y="55" width="40" height="20" fill="rgba(230,230,230,1)"><title>$swizzle:A0</title></rect><text x="274" y="65" text-anchor="middle" alignment-baseline="middle" fill="black">AND</text><rect x="298" y="77" width="40" height="20" fill="rgba(230,230,230,1)"></rect><text x="318" y="87" text-anchor="middle" alignment-baseline="middle" fill="black">&gt;&gt;</text><rect x="122" y="341" width="40" height="20" fill="rgba(230,230,230,1)"><title>$swizzle:A1</title></rect><text x="142" y="351" text-anchor="middle" alignment-baseline="middle" fill="black">AND</text><rect x="254" y="77" width="40" height="20" fill="rgba(230,230,230,1)"><title>$swizzle:Y</title></rect><text x="274" y="87" text-anchor="middle" alignment-baseline="middle" fill="black">&lt;&lt;</text><rect x="122" y="99" width="40" height="20" fill="rgba(230,230,230,1)"><title>$swizzle:A</title></rect><text x="142" y="109" text-anchor="middle" alignment-baseline="middle" fill="black">AND</text><rect x="210" y="99" width="40" height="20" fill="rgba(230,230,230,1)"><title>$swizzle:Y</title></rect><text x="230" y="109" text-anchor="middle" alignment-baseline="middle" fill="black">&gt;&gt;</text><rect x="34" y="143" width="40" height="20" fill="rgba(230,230,230,1)"><title>$swizzle:A0</title></rect><text x="54" y="153" text-anchor="middle" alignment-baseline="middle" fill="black">AND</text><rect x="34" y="165" width="40" height="20" fill="rgba(230,230,230,1)"></rect><text x="54" y="175" text-anchor="middle" alignment-baseline="middle" fill="black">&gt;&gt;</text><rect x="78" y="341" width="40" height="20" fill="rgba(230,230,230,1)"><title>$swizzle:A1</title></rect><text x="98" y="351" text-anchor="middle" alignment-baseline="middle" fill="black">AND</text><rect x="78" y="77" width="40" height="20" fill="rgba(230,230,230,1)"><title>$swizzle:Y</title></rect><text x="98" y="87" text-anchor="middle" alignment-baseline="middle" fill="black">&lt;&lt;</text><rect x="451" y="33" width="20" height="20" fill="rgba(230,230,230,1)"><title>$constant:Y</title></rect><text x="461" y="43" text-anchor="middle" alignment-baseline="middle" fill="black">C</text><rect x="451" y="55" width="20" height="20" fill="rgba(230,230,230,1)"><title>$constant:Y</title></rect><text x="461" y="65" text-anchor="middle" alignment-baseline="middle" fill="black">C</text><rect x="452" y="99" width="40" height="20" fill="rgba(230,230,230,1)"><title>$swizzle:A</title></rect><text x="472" y="109" text-anchor="middle" alignment-baseline="middle" fill="black">AND</text><rect x="452" y="77" width="40" height="20" fill="rgba(230,230,230,1)"><title>$swizzle:Y</title></rect><text x="472" y="87" text-anchor="middle" alignment-baseline="middle" fill="black">&gt;&gt;</text><rect x="165" y="33" width="20" height="20" fill="rgba(230,230,230,1)"><title>$constant:Y</title></rect><text x="175" y="43" text-anchor="middle" alignment-baseline="middle" fill="black">C</text><rect x="165" y="77" width="20" height="20" fill="rgba(230,230,230,1)"><title>$constant:Y</title></rect><text x="175" y="87" text-anchor="middle" alignment-baseline="middle" fill="black">C</text><rect x="33" y="407" width="20" height="20" fill="rgba(230,230,230,1)"><title>$constant:Y</title></rect><text x="43" y="417" text-anchor="middle" alignment-baseline="middle" fill="black">C</text><rect x="33" y="363" width="20" height="20" fill="rgba(230,230,230,1)"><title>$constant:Y</title></rect><text x="43" y="373" text-anchor="middle" alignment-baseline="middle" fill="black">C</text><rect x="452" y="121" width="40" height="20" fill="rgba(230,230,230,1)"><title>$swizzle:A0</title></rect><text x="472" y="131" text-anchor="middle" alignment-baseline="middle" fill="black">AND</text><rect x="452" y="143" width="40" height="20" fill="rgba(230,230,230,1)"><title>$swizzle:Y</title></rect><text x="472" y="153" text-anchor="middle" alignment-baseline="middle" fill="black">&lt;&lt;</text><rect x="452" y="165" width="40" height="20" fill="rgba(230,230,230,1)"><title>$swizzle:A</title></rect><text x="472" y="175" text-anchor="middle" alignment-baseline="middle" fill="black">AND</text><rect x="452" y="187" width="40" height="20" fill="rgba(230,230,230,1)"><title>$swizzle:Y</title></rect><text x="472" y="197" text-anchor="middle" alignment-baseline="middle" fill="black">&gt;&gt;</text><rect x="34" y="473" width="40" height="20" fill="rgba(230,230,230,1)"><title>$swizzle:A0</title></rect><text x="54" y="483" text-anchor="middle" alignment-baseline="middle" fill="black">AND</text><rect x="34" y="451" width="40" height="20" fill="rgba(230,230,230,1)"></rect><text x="54" y="461" text-anchor="middle" alignment-baseline="middle" fill="black">&gt;&gt;</text><rect x="34" y="429" width="40" height="20" fill="rgba(230,230,230,1)"><title>$swizzle:A1</title></rect><text x="54" y="439" text-anchor="middle" alignment-baseline="middle" fill="black">AND</text><rect x="78" y="451" width="40" height="20" fill="rgba(230,230,230,1)"><title>$swizzle:Y</title></rect><text x="98" y="461" text-anchor="middle" alignment-baseline="middle" fill="black">&lt;&lt;</text><rect x="166" y="473" width="40" height="20" fill="rgba(230,230,230,1)"><title>$swizzle:A</title></rect><text x="186" y="483" text-anchor="middle" alignment-baseline="middle" fill="black">AND</text><rect x="122" y="473" width="40" height="20" fill="rgba(230,230,230,1)"><title>$swizzle:Y</title></rect><text x="142" y="483" text-anchor="middle" alignment-baseline="middle" fill="black">&gt;&gt;</text><rect x="452" y="209" width="40" height="20" fill="rgba(230,230,230,1)"><title>$swizzle:A0</title></rect><text x="472" y="219" text-anchor="middle" alignment-baseline="middle" fill="black">AND</text><rect x="408" y="187" width="40" height="20" fill="rgba(230,230,230,1)"><title>$swizzle:Y</title></rect><text x="428" y="197" text-anchor="middle" alignment-baseline="middle" fill="black">&lt;&lt;</text><rect x="496" y="231" width="40" height="20" fill="rgba(230,230,230,1)"><title>$swizzle:A</title></rect><text x="516" y="241" text-anchor="middle" alignment-baseline="middle" fill="black">AND</text><rect x="496" y="209" width="40" height="20" fill="rgba(230,230,230,1)"><title>$swizzle:Y</title></rect><text x="516" y="219" text-anchor="middle" alignment-baseline="middle" fill="black">&gt;&gt;</text><rect x="166" y="451" width="40" height="20" fill="rgba(230,230,230,1)"><title>$swizzle:A0</title></rect><text x="186" y="461" text-anchor="middle" alignment-baseline="middle" fill="black">AND</text><rect x="122" y="429" width="40" height="20" fill="rgba(230,230,230,1)"><title>$swizzle:Y</title></rect><text x="142" y="439" text-anchor="middle" alignment-baseline="middle" fill="black">&lt;&lt;</text><rect x="78" y="407" width="40" height="20" fill="rgba(230,230,230,1)"><title>$swizzle:A</title></rect><text x="98" y="417" text-anchor="middle" alignment-baseline="middle" fill="black">AND</text><rect x="122" y="407" width="40" height="20" fill="rgba(230,230,230,1)"><title>$swizzle:Y</title></rect><text x="142" y="417" text-anchor="middle" alignment-baseline="middle" fill="black">&gt;&gt;</text><rect x="496" y="187" width="40" height="20" fill="rgba(230,230,230,1)"><title>$swizzle:A0</title></rect><text x="516" y="197" text-anchor="middle" alignment-baseline="middle" fill="black">AND</text><rect x="496" y="165" width="40" height="20" fill="rgba(230,230,230,1)"><title>$swizzle:Y</title></rect><text x="516" y="175" text-anchor="middle" alignment-baseline="middle" fill="black">&lt;&lt;</text><rect x="496" y="143" width="40" height="20" fill="rgba(230,230,230,1)"><title>$swizzle:A</title></rect><text x="516" y="153" text-anchor="middle" alignment-baseline="middle" fill="black">AND</text><rect x="496" y="121" width="40" height="20" fill="rgba(230,230,230,1)"><title>$swizzle:Y</title></rect><text x="516" y="131" text-anchor="middle" alignment-baseline="middle" fill="black">&gt;&gt;</text><rect x="495" y="99" width="20" height="20" fill="rgba(230,230,230,1)"><title>$constant:Y</title></rect><text x="505" y="109" text-anchor="middle" alignment-baseline="middle" fill="black">C</text><rect x="495" y="77" width="20" height="20" fill="rgba(230,230,230,1)"><title>$constant:Y</title></rect><text x="505" y="87" text-anchor="middle" alignment-baseline="middle" fill="black">C</text><rect x="496" y="55" width="40" height="20" fill="rgba(230,230,230,1)"><title>$swizzle:A</title></rect><text x="516" y="65" text-anchor="middle" alignment-baseline="middle" fill="black">AND</text><rect x="496" y="33" width="40" height="20" fill="rgba(230,230,230,1)"><title>$swizzle:Y</title></rect><text x="516" y="43" text-anchor="middle" alignment-baseline="middle" fill="black">&gt;&gt;</text><rect x="540" y="33" width="40" height="20" fill="rgba(230,230,230,1)"><title>$swizzle:A</title></rect><text x="560" y="43" text-anchor="middle" alignment-baseline="middle" fill="black">AND</text><rect x="540" y="55" width="40" height="20" fill="rgba(230,230,230,1)"><title>$swizzle:Y</title></rect><text x="560" y="65" text-anchor="middle" alignment-baseline="middle" fill="black">&gt;&gt;</text><rect x="540" y="77" width="40" height="20" fill="rgba(230,230,230,1)"><title>$swizzle:A</title></rect><text x="560" y="87" text-anchor="middle" alignment-baseline="middle" fill="black">AND</text><rect x="540" y="99" width="40" height="20" fill="rgba(230,230,230,1)"><title>$swizzle:Y</title></rect><text x="560" y="109" text-anchor="middle" alignment-baseline="middle" fill="black">&gt;&gt;</text><rect x="210" y="407" width="40" height="20" fill="rgba(230,230,230,1)"><title>$swizzle:A0</title></rect><text x="230" y="417" text-anchor="middle" alignment-baseline="middle" fill="black">AND</text><rect x="210" y="319" width="40" height="20" fill="rgba(230,230,230,1)"></rect><text x="230" y="329" text-anchor="middle" alignment-baseline="middle" fill="black">&gt;&gt;</text><rect x="166" y="319" width="40" height="20" fill="rgba(230,230,230,1)"><title>$swizzle:A1</title></rect><text x="186" y="329" text-anchor="middle" alignment-baseline="middle" fill="black">AND</text><rect x="166" y="341" width="40" height="20" fill="rgba(230,230,230,1)"><title>$swizzle:Y</title></rect><text x="186" y="351" text-anchor="middle" alignment-baseline="middle" fill="black">&lt;&lt;</text><rect x="210" y="297" width="40" height="20" fill="rgba(230,230,230,1)"><title>$swizzle:A</title></rect><text x="230" y="307" text-anchor="middle" alignment-baseline="middle" fill="black">AND</text><rect x="210" y="363" width="40" height="20" fill="rgba(230,230,230,1)"><title>$swizzle:Y</title></rect><text x="230" y="373" text-anchor="middle" alignment-baseline="middle" fill="black">&gt;&gt;</text><rect x="166" y="297" width="40" height="20" fill="rgba(230,230,230,1)"><title>$swizzle:A</title></rect><text x="186" y="307" text-anchor="middle" alignment-baseline="middle" fill="black">AND</text><rect x="122" y="319" width="40" height="20" fill="rgba(230,230,230,1)"><title>$swizzle:Y</title></rect><text x="142" y="329" text-anchor="middle" alignment-baseline="middle" fill="black">&gt;&gt;</text><rect x="539" y="209" width="40" height="40" fill="rgba(101,101,101,1)"></rect><text x="559" y="229" text-anchor="middle" alignment-baseline="middle" fill="black">SS</text><rect x="209" y="209" width="40" height="40" fill="rgba(101,101,101,1)"></rect><text x="229" y="229" text-anchor="middle" alignment-baseline="middle" fill="black">SS</text><rect x="209" y="451" width="40" height="40" fill="rgba(101,101,101,1)"></rect><text x="229" y="471" text-anchor="middle" alignment-baseline="middle" fill="black">SS</text></svg>